<svg width="13" height="21" viewBox="0 0 13 21" fill="none" xmlns="http://www.w3.org/2000/svg">
<path d="M2.02576 0.6434C1.75737 0.637103 1.49381 0.720093 1.27172 0.880959C1.04962 1.04183 0.880041 1.27262 0.786541 1.54104C0.693041 1.80946 0.680271 2.10225 0.750007 2.37878C0.819742 2.6553 0.968517 2.90166 1.17565 3.08383L9.07889 10.3058L1.17565 17.5252C1.03237 17.6375 0.912369 17.7802 0.823175 17.9442C0.73398 18.1083 0.677509 18.2903 0.657297 18.4788C0.637085 18.6672 0.653568 18.8581 0.705714 19.0394C0.75786 19.2207 0.844544 19.3887 0.96034 19.5326C1.07614 19.6766 1.21855 19.7933 1.37866 19.8759C1.53877 19.9584 1.71313 20.0047 1.89082 20.012C2.0685 20.0194 2.24569 19.9876 2.41129 19.9184C2.57688 19.8493 2.72732 19.7445 2.85316 19.6105L11.9017 11.3525C12.0438 11.2231 12.1579 11.0626 12.2361 10.8817C12.3143 10.7007 12.3549 10.5038 12.3549 10.3045C12.3549 10.1053 12.3143 9.90832 12.2361 9.72739C12.1579 9.54645 12.0438 9.38574 11.9017 9.2564L2.85316 0.990443C2.62459 0.773878 2.3314 0.651073 2.02576 0.6434Z" fill="#162F42"/>
</svg>
