<svg width="16" height="15" viewBox="0 0 16 15" fill="none" xmlns="http://www.w3.org/2000/svg">
<g clip-path="url(#clip0_1_454)">
<path d="M12.9116 1.15524H12.3521V0.589095C12.3521 0.265625 12.0899 0.00341797 11.7664 0.00341797C11.4429 0.00341797 11.1807 0.265625 11.1807 0.589095V1.15524H5.43446V0.589095C5.43446 0.265625 5.17226 0.00341797 4.84879 0.00341797C4.52532 0.00341797 4.26311 0.265625 4.26311 0.589095V1.15524H3.70364C2.10677 1.15524 0.807617 2.45439 0.807617 4.05123V12.1007C0.807617 13.6976 2.10677 14.9967 3.70364 14.9967H12.9116C14.5085 14.9967 15.8076 13.6976 15.8076 12.1007V4.05123C15.8076 2.45439 14.5085 1.15524 12.9116 1.15524ZM3.70364 2.32659H4.26311V3.46866C4.26311 3.79213 4.52532 4.05434 4.84879 4.05434C5.17226 4.05434 5.43446 3.79213 5.43446 3.46866V2.32659H11.1808V3.46866C11.1808 3.79213 11.443 4.05434 11.7664 4.05434C12.0899 4.05434 12.3521 3.79213 12.3521 3.46866V2.32659H12.9116C13.8626 2.32659 14.6363 3.10027 14.6363 4.05123V4.61073H1.97897V4.05123C1.97897 3.10027 2.75265 2.32659 3.70364 2.32659ZM12.9116 13.8254H3.70364C2.75265 13.8254 1.97897 13.0517 1.97897 12.1007V5.78208H14.6363V12.1007C14.6363 13.0517 13.8626 13.8254 12.9116 13.8254ZM6.01039 8.08576C6.01039 8.40923 5.74818 8.67143 5.42471 8.67143H4.27289C3.94942 8.67143 3.68721 8.40923 3.68721 8.08576C3.68721 7.76229 3.94942 7.50008 4.27289 7.50008H5.42471C5.74815 7.50008 6.01039 7.76229 6.01039 8.08576ZM12.928 8.08576C12.928 8.40923 12.6658 8.67143 12.3424 8.67143H11.1906C10.8671 8.67143 10.6049 8.40923 10.6049 8.08576C10.6049 7.76229 10.8671 7.50008 11.1906 7.50008H12.3424C12.6658 7.50008 12.928 7.76229 12.928 8.08576ZM9.46588 8.08576C9.46588 8.40923 9.20367 8.67143 8.8802 8.67143H7.72838C7.40491 8.67143 7.14271 8.40923 7.14271 8.08576C7.14271 7.76229 7.40491 7.50008 7.72838 7.50008H8.8802C9.20364 7.50008 9.46588 7.76229 9.46588 8.08576ZM6.01039 11.5412C6.01039 11.8647 5.74818 12.1269 5.42471 12.1269H4.27289C3.94942 12.1269 3.68721 11.8647 3.68721 11.5412C3.68721 11.2178 3.94942 10.9556 4.27289 10.9556H5.42471C5.74815 10.9556 6.01039 11.2178 6.01039 11.5412ZM12.928 11.5412C12.928 11.8647 12.6658 12.1269 12.3424 12.1269H11.1906C10.8671 12.1269 10.6049 11.8647 10.6049 11.5412C10.6049 11.2178 10.8671 10.9556 11.1906 10.9556H12.3424C12.6658 10.9556 12.928 11.2178 12.928 11.5412ZM9.46588 11.5412C9.46588 11.8647 9.20367 12.1269 8.8802 12.1269H7.72838C7.40491 12.1269 7.14271 11.8647 7.14271 11.5412C7.14271 11.2178 7.40491 10.9556 7.72838 10.9556H8.8802C9.20364 10.9556 9.46588 11.2178 9.46588 11.5412Z" fill="#162F42"/>
</g>
<defs>
<clipPath id="clip0_1_454">
<rect width="15" height="15" fill="white" transform="translate(0.807617)"/>
</clipPath>
</defs>
</svg>
