<svg width="15" height="15" viewBox="0 0 15 15" fill="none" xmlns="http://www.w3.org/2000/svg">
<path d="M12.104 1.15182H11.5445V0.585677C11.5445 0.262207 11.2823 0 10.9588 0C10.6353 0 10.3731 0.262207 10.3731 0.585677V1.15182H4.62685V0.585677C4.62685 0.262207 4.36464 0 4.04117 0C3.7177 0 3.45549 0.262207 3.45549 0.585677V1.15182H2.89602C1.29915 1.15182 0 2.45097 0 4.04782V12.0973C0 13.6942 1.29915 14.9933 2.89602 14.9933H12.104C13.7009 14.9933 15 13.6942 15 12.0973V4.04782C15 2.45097 13.7009 1.15182 12.104 1.15182ZM2.89602 2.32317H3.45549V3.46524C3.45549 3.78871 3.7177 4.05092 4.04117 4.05092C4.36464 4.05092 4.62685 3.78871 4.62685 3.46524V2.32317H10.3732V3.46524C10.3732 3.78871 10.6354 4.05092 10.9588 4.05092C11.2823 4.05092 11.5445 3.78871 11.5445 3.46524V2.32317H12.104C13.055 2.32317 13.8286 3.09685 13.8286 4.04782V4.60731H1.17135V4.04782C1.17135 3.09685 1.94503 2.32317 2.89602 2.32317ZM12.104 13.822H2.89602C1.94503 13.822 1.17135 13.0483 1.17135 12.0973V5.77867H13.8286V12.0973C13.8286 13.0483 13.055 13.822 12.104 13.822ZM5.20277 8.08234C5.20277 8.40581 4.94056 8.66801 4.61709 8.66801H3.46527C3.1418 8.66801 2.8796 8.40581 2.8796 8.08234C2.8796 7.75887 3.1418 7.49666 3.46527 7.49666H4.61709C4.94053 7.49666 5.20277 7.75887 5.20277 8.08234ZM12.1204 8.08234C12.1204 8.40581 11.8582 8.66801 11.5348 8.66801H10.3829C10.0595 8.66801 9.79726 8.40581 9.79726 8.08234C9.79726 7.75887 10.0595 7.49666 10.3829 7.49666H11.5348C11.8582 7.49666 12.1204 7.75887 12.1204 8.08234ZM8.65826 8.08234C8.65826 8.40581 8.39606 8.66801 8.07259 8.66801H6.92077C6.5973 8.66801 6.33509 8.40581 6.33509 8.08234C6.33509 7.75887 6.5973 7.49666 6.92077 7.49666H8.07259C8.39603 7.49666 8.65826 7.75887 8.65826 8.08234ZM5.20277 11.5378C5.20277 11.8613 4.94056 12.1235 4.61709 12.1235H3.46527C3.1418 12.1235 2.8796 11.8613 2.8796 11.5378C2.8796 11.2144 3.1418 10.9522 3.46527 10.9522H4.61709C4.94053 10.9522 5.20277 11.2144 5.20277 11.5378ZM12.1204 11.5378C12.1204 11.8613 11.8582 12.1235 11.5348 12.1235H10.3829C10.0595 12.1235 9.79726 11.8613 9.79726 11.5378C9.79726 11.2144 10.0595 10.9522 10.3829 10.9522H11.5348C11.8582 10.9522 12.1204 11.2144 12.1204 11.5378ZM8.65826 11.5378C8.65826 11.8613 8.39606 12.1235 8.07259 12.1235H6.92077C6.5973 12.1235 6.33509 11.8613 6.33509 11.5378C6.33509 11.2144 6.5973 10.9522 6.92077 10.9522H8.07259C8.39603 10.9522 8.65826 11.2144 8.65826 11.5378Z" fill="#162F42"/>
</svg>
