<svg width="27" height="27" viewBox="0 0 27 27" fill="none" xmlns="http://www.w3.org/2000/svg">
<g clip-path="url(#clip0_1_10807)">
<path d="M23.3297 26.1562H17.5922C16.0313 26.1562 14.7656 24.8906 14.7656 23.3297V15.6094C14.7656 15.1453 15.1453 14.7656 15.6094 14.7656H23.3297C24.8906 14.7656 26.1562 16.0313 26.1562 17.5922V23.3297C26.1562 24.8906 24.8906 26.1562 23.3297 26.1562ZM16.4531 16.4531V23.3297C16.4531 23.9625 16.9594 24.4688 17.5922 24.4688H23.3297C23.9625 24.4688 24.4688 23.9625 24.4688 23.3297V17.5922C24.4688 16.9594 23.9625 16.4531 23.3297 16.4531H16.4531Z" fill="#00D094"/>
<path d="M9.40781 26.1562H3.67031C2.10937 26.1562 0.84375 24.8906 0.84375 23.3297V17.5922C0.84375 16.0313 2.10937 14.7656 3.67031 14.7656H11.3906C11.8547 14.7656 12.2344 15.1453 12.2344 15.6094V23.3297C12.2344 24.8906 10.9688 26.1562 9.40781 26.1562ZM3.67031 16.4531C3.0375 16.4531 2.53125 16.9594 2.53125 17.5922V23.3297C2.53125 23.9625 3.0375 24.4688 3.67031 24.4688H9.40781C10.0406 24.4688 10.5469 23.9625 10.5469 23.3297V16.4531H3.67031Z" fill="#00D094"/>
<path d="M23.3297 12.2344H15.6094C15.1453 12.2344 14.7656 11.8547 14.7656 11.3906V3.67031C14.7656 2.10937 16.0313 0.84375 17.5922 0.84375H23.3297C24.8906 0.84375 26.1562 2.10937 26.1562 3.67031V9.40781C26.1562 10.9688 24.8906 12.2344 23.3297 12.2344ZM16.4531 10.5469H23.3297C23.9625 10.5469 24.4688 10.0406 24.4688 9.40781V3.67031C24.4688 3.0375 23.9625 2.53125 23.3297 2.53125H17.5922C16.9594 2.53125 16.4531 3.0375 16.4531 3.67031V10.5469Z" fill="#00D094"/>
<path d="M11.3906 12.2344H3.67031C2.10937 12.2344 0.84375 10.9688 0.84375 9.40781V3.67031C0.84375 2.10937 2.10937 0.84375 3.67031 0.84375H9.40781C10.9688 0.84375 12.2344 2.10937 12.2344 3.67031V11.3906C12.2344 11.8547 11.8547 12.2344 11.3906 12.2344ZM3.67031 2.53125C3.0375 2.53125 2.53125 3.0375 2.53125 3.67031V9.40781C2.53125 10.0406 3.0375 10.5469 3.67031 10.5469H10.5469V3.67031C10.5469 3.0375 10.0406 2.53125 9.40781 2.53125H3.67031Z" fill="#00D094"/>
</g>
<defs>
<clipPath id="clip0_1_10807">
<rect width="27" height="27" fill="white"/>
</clipPath>
</defs>
</svg>
