<svg width="20" height="21" viewBox="0 0 20 21" fill="none" xmlns="http://www.w3.org/2000/svg">
<path d="M16.8291 16.4337H3.17089C2.72694 16.4332 2.30132 16.2478 1.98742 15.9181C1.67351 15.5885 1.49696 15.1416 1.49649 14.6754V5.81847C1.49696 5.35232 1.67351 4.9054 1.98742 4.57577C2.30132 4.24614 2.72694 4.06071 3.17089 4.06018H16.8291C17.2731 4.06071 17.6987 4.24614 18.0126 4.57577C18.3265 4.9054 18.5031 5.35232 18.5035 5.81847V14.6754C18.5031 15.1416 18.3265 15.5885 18.0126 15.9181C17.6987 16.2478 17.2731 16.4332 16.8291 16.4337V16.4337ZM3.17089 4.73218C2.89661 4.73249 2.63366 4.84705 2.43973 5.0507C2.2458 5.25436 2.13674 5.53048 2.13649 5.81847V14.6754C2.13674 14.9634 2.2458 15.2395 2.43973 15.4432C2.63366 15.6469 2.89661 15.7614 3.17089 15.7617H16.8291C17.1034 15.7614 17.3664 15.6469 17.5603 15.4432C17.7542 15.2395 17.8633 14.9634 17.8635 14.6754V5.81847C17.8633 5.53048 17.7542 5.25436 17.5603 5.0507C17.3664 4.84705 17.1034 4.73249 16.8291 4.73218H3.17089Z" fill="#00D094"/>
<path d="M10 12.2243C9.92201 12.2244 9.84667 12.1945 9.78817 12.1403L2.07617 4.99228L2.49969 4.48828L10 11.4408L17.5007 4.48912L17.9242 4.99312L10.2122 12.1412C10.1535 12.1952 10.078 12.2248 10 12.2243Z" fill="#00D094"/>
<path d="M1.90216 15.3787L7.083 9.18049L7.56428 9.62401L2.38344 15.8222L1.90216 15.3787Z" fill="#00D094"/>
<path d="M12.4521 9.61743L12.9333 9.17391L18.1143 15.3722L17.633 15.8157L12.4521 9.61743Z" fill="#00D094"/>
</svg>
