<svg width="19" height="19" viewBox="0 0 19 19" fill="none" xmlns="http://www.w3.org/2000/svg">
<g clip-path="url(#clip0_1_27091)">
<path d="M10.9385 18.6479H7.94749C7.4479 18.6479 7.0415 18.2423 7.0415 17.7436V11.0105H5.29649C4.7969 11.0105 4.3905 10.6047 4.3905 10.1063V7.22108C4.3905 6.72246 4.7969 6.31686 5.29649 6.31686H7.0415V4.87207C7.0415 3.43951 7.49222 2.2207 8.34477 1.34763C9.20117 0.470568 10.398 0.00708008 11.8059 0.00708008L14.0869 0.0107777C14.5857 0.011631 14.9914 0.417236 14.9914 0.914999V3.59381C14.9914 4.09243 14.5851 4.49804 14.0857 4.49804L12.5498 4.4986C12.0814 4.4986 11.9622 4.59233 11.9367 4.62105C11.8946 4.6687 11.8446 4.80338 11.8446 5.17528V6.31672H13.9702C14.1303 6.31672 14.2853 6.35611 14.4185 6.43035C14.7059 6.59063 14.8846 6.89369 14.8846 7.22122L14.8835 10.1064C14.8835 10.6047 14.4771 11.0103 13.9775 11.0103H11.8446V17.7436C11.8446 18.2423 11.4381 18.6479 10.9385 18.6479ZM8.13644 17.5551H10.7495V10.5212C10.7495 10.1883 11.021 9.91753 11.3544 9.91753H13.7886L13.7895 7.40966H11.3543C11.0208 7.40966 10.7495 7.13888 10.7495 6.80595V5.17528C10.7495 4.74834 10.793 4.26281 11.1159 3.89788C11.506 3.45672 12.1209 3.4058 12.5495 3.4058L13.8964 3.40523V1.1033L11.805 1.09988C9.54245 1.09988 8.13644 2.54538 8.13644 4.87207V6.80595C8.13644 7.13874 7.86513 7.40966 7.53169 7.40966H5.48544V9.91753H7.53169C7.86513 9.91753 8.13644 10.1883 8.13644 10.5212V17.5551ZM14.0848 1.10358H14.0849H14.0848Z" fill="#4E4E4E"/>
</g>
<defs>
<clipPath id="clip0_1_27091">
<rect width="18.6408" height="18.6408" fill="white" transform="translate(0.359253 0.043457)"/>
</clipPath>
</defs>
</svg>
