<svg width="15" height="15" viewBox="0 0 15 15" fill="none" xmlns="http://www.w3.org/2000/svg">
<g clip-path="url(#clip0_1_11703)">
<path d="M4.97733 0.644043H1.7569C0.788145 0.644043 0 1.43222 0 2.40098V4.97731C0 5.94607 0.788145 6.73422 1.7569 6.73422H4.97733C5.94606 6.73422 6.73424 5.94607 6.73424 4.97731V2.40098C6.73421 1.43222 5.94606 0.644043 4.97733 0.644043ZM5.79671 4.97734C5.79671 5.42916 5.42912 5.79675 4.9773 5.79675H1.7569C1.30509 5.79672 0.9375 5.42913 0.9375 4.97734V2.40098C0.9375 1.94913 1.30509 1.58154 1.7569 1.58154H4.97733C5.42915 1.58154 5.79674 1.94913 5.79674 2.40098V4.97734H5.79671ZM4.97733 8.26574H1.7569C0.788145 8.26574 0 9.05389 0 10.0226V12.599C0 13.5677 0.788145 14.3559 1.7569 14.3559H4.97733C5.94606 14.3559 6.73424 13.5677 6.73424 12.599V10.0226C6.73421 9.05389 5.94606 8.26574 4.97733 8.26574ZM5.79671 12.599C5.79671 13.0508 5.42912 13.4184 4.9773 13.4184H1.7569C1.30509 13.4184 0.9375 13.0508 0.9375 12.599V10.0226C0.9375 9.57083 1.30509 9.20324 1.7569 9.20324H4.97733C5.42915 9.20324 5.79674 9.57083 5.79674 10.0226V12.599H5.79671ZM13.243 0.644043H10.0226C9.05388 0.644043 8.2657 1.43219 8.2657 2.40098V4.97731C8.2657 5.94607 9.05385 6.73422 10.0226 6.73422H13.243C14.2118 6.73422 15 5.94607 15 4.97731V2.40098C15 1.43222 14.2119 0.644043 13.243 0.644043ZM14.0625 4.97734C14.0625 5.42916 13.6949 5.79675 13.243 5.79675H10.0226C9.57079 5.79675 9.2032 5.42916 9.2032 4.97734V2.40098C9.2032 1.94913 9.57079 1.58154 10.0226 1.58154H13.243C13.6949 1.58154 14.0625 1.94913 14.0625 2.40098V4.97734ZM13.243 8.26574H10.0226C9.05388 8.26574 8.2657 9.05389 8.2657 10.0226V12.599C8.2657 13.5677 9.05385 14.3559 10.0226 14.3559H13.243C14.2118 14.3559 15 13.5678 15 12.599V10.0226C15 9.05389 14.2119 8.26574 13.243 8.26574ZM14.0625 12.599C14.0625 13.0508 13.6949 13.4184 13.243 13.4184H10.0226C9.57079 13.4184 9.2032 13.0508 9.2032 12.599V10.0226C9.2032 9.57083 9.57079 9.20324 10.0226 9.20324H13.243C13.6949 9.20324 14.0625 9.57083 14.0625 10.0226V12.599Z" fill="#162F42"/>
</g>
<defs>
<clipPath id="clip0_1_11703">
<rect width="15" height="15" fill="white"/>
</clipPath>
</defs>
</svg>
