<svg width="20" height="19" viewBox="0 0 20 19" fill="none" xmlns="http://www.w3.org/2000/svg">
<g clip-path="url(#clip0_1_27100)">
<path d="M14.4007 0.043457H5.85173C3.06938 0.043457 0.805847 2.30699 0.805847 5.08934V13.6385C0.805847 16.4207 3.06938 18.6842 5.85173 18.6842H14.4009C17.1831 18.6842 19.4466 16.4207 19.4466 13.6385V5.08934C19.4466 2.30699 17.1831 0.043457 14.4007 0.043457V0.043457ZM18.3538 13.6385C18.3538 15.8181 16.5805 17.5914 14.4007 17.5914H5.85173C3.67196 17.5914 1.89865 15.8181 1.89865 13.6385V5.08934C1.89865 2.90957 3.67196 1.13626 5.85173 1.13626H14.4009C16.5805 1.13626 18.3538 2.90957 18.3538 5.08934V13.6385Z" fill="#162F42"/>
<path d="M10.1262 4.26685C7.31573 4.26685 5.0293 6.55328 5.0293 9.36378C5.0293 12.1743 7.31573 14.4607 10.1262 14.4607C12.9367 14.4607 15.2232 12.1743 15.2232 9.36378C15.2232 6.55328 12.9367 4.26685 10.1262 4.26685ZM10.1262 13.3679C7.91845 13.3679 6.1221 11.5717 6.1221 9.36378C6.1221 7.156 7.91845 5.35965 10.1262 5.35965C12.3342 5.35965 14.1304 7.156 14.1304 9.36378C14.1304 11.5717 12.3342 13.3679 10.1262 13.3679Z" fill="#162F42"/>
<path d="M15.3442 2.45679C14.5136 2.45679 13.8381 3.13246 13.8381 3.96287C13.8381 4.79342 14.5136 5.4691 15.3442 5.4691C16.1747 5.4691 16.8504 4.79342 16.8504 3.96287C16.8504 3.13232 16.1747 2.45679 15.3442 2.45679ZM15.3442 4.37616C15.1163 4.37616 14.9309 4.1907 14.9309 3.96287C14.9309 3.7349 15.1163 3.54959 15.3442 3.54959C15.5721 3.54959 15.7576 3.7349 15.7576 3.96287C15.7576 4.1907 15.5721 4.37616 15.3442 4.37616Z" fill="#162F42"/>
</g>
<defs>
<clipPath id="clip0_1_27100">
<rect width="18.6408" height="18.6408" fill="white" transform="translate(0.805847 0.043457)"/>
</clipPath>
</defs>
</svg>
