<svg width="19" height="19" viewBox="0 0 19 19" fill="none" xmlns="http://www.w3.org/2000/svg">
<g clip-path="url(#clip0_1_27096)">
<path d="M4.85819 5.56372H1.71575C1.36347 5.56372 1.0769 5.85029 1.0769 6.20256V18.0454C1.0769 18.3976 1.36347 18.6841 1.71575 18.6841H4.85819C5.21032 18.6841 5.49689 18.3976 5.49689 18.0454V6.20256C5.49689 5.85029 5.21032 5.56372 4.85819 5.56372ZM4.4031 17.5903H2.1707V6.65752H4.4031V17.5903Z" fill="#4E4E4E"/>
<path d="M3.28651 0.043457C2.05775 0.043457 1.05824 1.04296 1.05824 2.27158C1.05824 3.50034 2.05775 4.49984 3.28651 4.49984C4.51499 4.49984 5.51464 3.50034 5.51464 2.27158C5.51464 1.04296 4.51513 0.043457 3.28651 0.043457ZM3.28651 3.40605C2.6609 3.40605 2.15204 2.89719 2.15204 2.27158C2.15204 1.64611 2.6609 1.13725 3.28651 1.13725C3.91199 1.13725 4.42084 1.64611 4.42084 2.27158C4.42084 2.89705 3.91199 3.40605 3.28651 3.40605Z" fill="#4E4E4E"/>
<path d="M15.659 6.95229C14.9079 6.32526 13.9529 5.98991 12.971 6.00811C12.3612 6.01935 11.7653 6.1664 11.2253 6.43263V6.17408C11.2253 5.83716 10.9521 5.56396 10.6152 5.56396H7.41553C7.07862 5.56396 6.80542 5.83716 6.80542 6.17408V18.0741C6.80542 18.4112 7.07862 18.6842 7.41553 18.6842H10.6783C10.9804 18.6842 11.2253 18.4393 11.2253 18.1374V11.0423C11.2253 10.4349 11.7006 9.92094 12.3075 9.90288C12.9384 9.88425 13.4575 10.3918 13.4575 11.0186V18.1488C13.4575 18.4445 13.6973 18.6842 13.993 18.6842H17.1287C17.4244 18.6842 17.6642 18.4445 17.6642 18.1488V11.2355C17.6642 9.5772 16.9333 8.01594 15.659 6.95229ZM16.5704 17.5905H14.5515V11.0186C14.5515 9.80006 13.5601 8.80866 12.3414 8.80866C11.1229 8.80866 10.1315 9.80006 10.1315 11.0186V17.5905H7.89922V6.65762H10.1315V7.45247H10.1322C10.132 7.58132 10.1768 7.71074 10.269 7.81498C10.4691 8.04111 10.8148 8.06216 11.041 7.86192C11.5798 7.38492 12.2724 7.11499 12.9912 7.10162C13.7107 7.08797 14.409 7.33344 14.9582 7.79194C15.9829 8.64724 16.5704 9.90231 16.5704 11.2355V17.5905Z" fill="#4E4E4E"/>
</g>
<defs>
<clipPath id="clip0_1_27096">
<rect width="18.6408" height="18.6408" fill="white" transform="translate(0.0388184 0.043457)"/>
</clipPath>
</defs>
</svg>
