<svg width="20" height="19" viewBox="0 0 20 19" fill="none" xmlns="http://www.w3.org/2000/svg">
<path d="M9.99999 0.558838C7.05881 0.558838 4.70587 2.79413 4.70587 5.58825V7.82354C3.70587 7.82354 2.94116 8.55001 2.94116 9.50001V16.7647C2.94116 17.7147 3.70587 18.4412 4.70587 18.4412H15.2941C16.2941 18.4412 17.0588 17.7147 17.0588 16.7647V9.50001C17.0588 8.55001 16.2941 7.82354 15.2941 7.82354V5.58825C15.2941 2.79413 12.9412 0.558838 9.99999 0.558838ZM15.8823 9.50001V16.7647C15.8823 17.1 15.647 17.3235 15.2941 17.3235H4.70587C4.35293 17.3235 4.11763 17.1 4.11763 16.7647V9.50001C4.11763 9.16472 4.35293 8.94119 4.70587 8.94119H5.2941H14.7059H15.2941C15.647 8.94119 15.8823 9.16472 15.8823 9.50001ZM5.88234 7.82354V5.58825C5.88234 3.40884 7.70587 1.67648 9.99999 1.67648C12.2941 1.67648 14.1176 3.40884 14.1176 5.58825V7.82354H5.88234Z" fill="#00D094"/>
<path d="M10 10.6177C9 10.6177 8.23529 11.3441 8.23529 12.2941C8.23529 13.0206 8.70588 13.6353 9.41176 13.8589V15.0883C9.41176 15.4236 9.64706 15.6471 10 15.6471C10.3529 15.6471 10.5882 15.4236 10.5882 15.0883V13.8589C11.2941 13.6353 11.7647 13.0206 11.7647 12.2941C11.7647 11.3441 11 10.6177 10 10.6177ZM10 12.853C9.64706 12.853 9.41176 12.6294 9.41176 12.2941C9.41176 11.9589 9.64706 11.7353 10 11.7353C10.3529 11.7353 10.5882 11.9589 10.5882 12.2941C10.5882 12.6294 10.3529 12.853 10 12.853Z" fill="#00D094"/>
</svg>
