<svg width="21" height="21" viewBox="0 0 21 21" fill="none" xmlns="http://www.w3.org/2000/svg">
<path d="M19.0312 5.25H1.96875C1.24392 5.25 0.65625 4.66233 0.65625 3.9375C0.65625 3.21267 1.24392 2.625 1.96875 2.625H19.0312C19.7561 2.625 20.3438 3.21267 20.3438 3.9375C20.3438 4.66233 19.7561 5.25 19.0312 5.25Z" fill="#00D094"/>
<path d="M19.0312 18.375H1.96875C1.24392 18.375 0.65625 17.7873 0.65625 17.0625C0.65625 16.3377 1.24392 15.75 1.96875 15.75H19.0312C19.7561 15.75 20.3438 16.3377 20.3438 17.0625C20.3438 17.7873 19.7561 18.375 19.0312 18.375Z" fill="#00D094"/>
<path d="M19.0312 11.8125H1.96875C1.24392 11.8125 0.65625 11.2248 0.65625 10.5C0.65625 9.77517 1.24392 9.1875 1.96875 9.1875H19.0312C19.7561 9.1875 20.3438 9.77517 20.3438 10.5C20.3438 11.2248 19.7561 11.8125 19.0312 11.8125Z" fill="#00D094"/>
</svg>
