<svg width="27" height="27" viewBox="0 0 27 27" fill="none" xmlns="http://www.w3.org/2000/svg">
<g opacity="0.6">
<path d="M22.3051 2.74121H4.63237C2.7846 2.74121 1.28125 4.24427 1.28125 6.09233V16.9077C1.28125 18.7516 2.77806 20.2523 4.62046 20.2588V25.1667L11.6737 20.2588H22.3051C24.1529 20.2588 25.6562 18.7555 25.6562 16.9077V6.09233C25.6562 4.24427 24.1529 2.74121 22.3051 2.74121ZM24.228 16.9077C24.228 17.9678 23.3654 18.8306 22.3051 18.8306H11.2255L6.04869 22.433V18.8306H4.63237C3.57206 18.8306 2.70947 17.9678 2.70947 16.9077V6.09233C2.70947 5.03187 3.57206 4.16943 4.63237 4.16943H22.3051C23.3654 4.16943 24.228 5.03187 24.228 6.09233V16.9077Z" fill="#00D094"/>
<path d="M7.80518 7.7876H19.1325V9.21582H7.80518V7.7876Z" fill="#00D094"/>
<path d="M7.80518 10.8345H19.1325V12.2627H7.80518V10.8345Z" fill="#00D094"/>
<path d="M7.80518 13.8813H19.1325V15.3096H7.80518V13.8813Z" fill="#00D094"/>
</g>
</svg>
