<svg width="39" height="39" viewBox="0 0 39 39" fill="none" xmlns="http://www.w3.org/2000/svg">
<g clip-path="url(#clip0_1_10666)">
<path d="M7.71498 18.8808C5.22004 18.8808 3.19043 16.8696 3.19043 14.3983C3.19043 11.9267 5.22004 9.91553 7.71498 9.91553C10.2096 9.91553 12.2389 11.9264 12.2389 14.3983C12.2389 16.8699 10.2096 18.8808 7.71498 18.8808ZM7.71498 11.1736C5.91357 11.1736 4.44849 12.6202 4.44849 14.3983C4.44849 16.1761 5.91357 17.6227 7.71498 17.6227C9.51577 17.6227 10.9808 16.1761 10.9808 14.3983C10.9808 12.6202 9.51577 11.1736 7.71498 11.1736Z" fill="#00D094"/>
<path d="M9.53469 31.292H1.64415C0.737454 31.292 0 30.5591 0 29.6583V27.6007C0 23.3885 3.4606 19.9614 7.71455 19.9614C9.38757 19.9614 10.9801 20.4836 12.3187 21.471C12.5982 21.6774 12.6577 22.0712 12.4513 22.351C12.2449 22.6302 11.8515 22.6898 11.5717 22.4837C10.4509 21.6569 9.11728 21.2195 7.71455 21.2195C4.15444 21.2195 1.25806 24.0824 1.25806 27.6007V29.6583C1.25806 29.8653 1.43129 30.0339 1.64415 30.0339H9.535C9.88207 30.0339 10.164 30.3156 10.164 30.663C10.164 31.01 9.88207 31.292 9.53469 31.292Z" fill="#00D094"/>
<path d="M37.3561 30.8156H29.4656C29.1185 30.8156 28.8365 30.534 28.8365 30.1866C28.8365 29.8395 29.1185 29.5575 29.4656 29.5575H37.3564C37.5693 29.5575 37.7425 29.3892 37.7425 29.1822V27.1247C37.7425 23.6057 34.8461 20.7434 31.286 20.7434C29.7991 20.7434 28.3476 21.2554 27.1985 22.1855C26.9289 22.4038 26.533 22.3624 26.314 22.0924C26.0956 21.8224 26.1367 21.4262 26.4073 21.2075C27.7794 20.0972 29.512 19.4854 31.286 19.4854C35.5397 19.4854 39.0003 22.9122 39.0003 27.1247V29.1822C39.0003 30.0828 38.2628 30.8156 37.3561 30.8156Z" fill="#00D094"/>
<path d="M31.2857 18.5697C28.791 18.5697 26.7617 16.5589 26.7617 14.0873C26.7617 11.6157 28.791 9.60449 31.2857 9.60449C33.7806 9.60449 35.8102 11.6154 35.8102 14.0873C35.8102 16.5592 33.7803 18.5697 31.2857 18.5697ZM31.2857 10.8626C29.4849 10.8626 28.0198 12.3092 28.0198 14.0873C28.0198 15.8653 29.4849 17.3117 31.2857 17.3117C33.0871 17.3117 34.5521 15.8653 34.5521 14.0873C34.5521 12.3092 33.0867 10.8626 31.2857 10.8626Z" fill="#00D094"/>
<path d="M28.037 33.3386H10.9622C9.82794 33.3386 8.90527 32.4227 8.90527 31.2967V28.4027C8.90527 22.6192 13.6574 17.9141 19.4996 17.9141C25.3418 17.9141 30.094 22.6192 30.094 28.4027V31.2967C30.094 32.4227 29.1713 33.3386 28.037 33.3386ZM19.4996 19.1724C14.3516 19.1724 10.1633 23.3134 10.1633 28.4031V31.297C10.1633 31.7291 10.5218 32.0808 10.9622 32.0808H28.0367C28.4771 32.0808 28.8356 31.7291 28.8356 31.297V28.4031C28.8359 23.3134 24.6477 19.1724 19.4996 19.1724Z" fill="#00D094"/>
<path d="M19.2814 17.1791C16.076 17.1791 13.4678 14.5957 13.4678 11.4198C13.4678 8.24422 16.0757 5.66113 19.2814 5.66113C22.4874 5.66113 25.0953 8.24453 25.0953 11.4201C25.0953 14.596 22.4871 17.1791 19.2814 17.1791ZM19.2814 6.9192C16.7696 6.9192 14.7258 8.93837 14.7258 11.4201C14.7258 13.9021 16.7696 15.9213 19.2814 15.9213C21.7935 15.9213 23.8373 13.9021 23.8373 11.4201C23.8373 8.93837 21.7935 6.9192 19.2814 6.9192Z" fill="#00D094"/>
</g>
<defs>
<clipPath id="clip0_1_10666">
<rect width="39" height="39" fill="white"/>
</clipPath>
</defs>
</svg>
