<svg width="25" height="25" viewBox="0 0 25 25" fill="none" xmlns="http://www.w3.org/2000/svg">
<path d="M12.3753 13.3127C12.4482 13.3023 12.542 13.3023 12.6253 13.3127C14.4586 13.2502 15.917 11.7502 15.917 9.90641C15.917 8.021 14.3961 6.48975 12.5003 6.48975C10.6149 6.48975 9.08363 8.021 9.08363 9.90641C9.09404 11.7502 10.542 13.2502 12.3753 13.3127Z" stroke="#162F42" stroke-width="1.5" stroke-linecap="round" stroke-linejoin="round"/>
<path d="M5.47885 20.1875C7.33302 21.8854 9.79135 22.9167 12.4997 22.9167C15.208 22.9167 17.6663 21.8854 19.5205 20.1875C19.4163 19.2083 18.7913 18.25 17.6768 17.5C14.8226 15.6042 10.1559 15.6042 7.3226 17.5C6.20802 18.25 5.58302 19.2083 5.47885 20.1875Z" stroke="#162F42" stroke-width="1.5" stroke-linecap="round" stroke-linejoin="round"/>
<path d="M12.4993 22.9168C6.74643 22.9168 2.08267 18.2531 2.08267 12.5002C2.08267 6.74719 6.74643 2.0835 12.4993 2.0835C18.2523 2.0835 22.916 6.74719 22.916 12.5002C22.916 18.2531 18.2523 22.9168 12.4993 22.9168Z" stroke="#162F42" stroke-width="1.5" stroke-linecap="round" stroke-linejoin="round"/>
</svg>
