<svg width="21" height="17" viewBox="0 0 21 17" fill="none" xmlns="http://www.w3.org/2000/svg">
<g clip-path="url(#clip0_1_633)">
<path d="M9.10416 -0.0205078H3.43375C3.02704 -0.00799222 3.02732 0.57861 3.43375 0.591003H9.10416C9.46673 0.591003 9.76172 0.885058 9.76172 1.24654V6.30871C9.76172 6.67015 9.46673 6.96425 9.10416 6.96425H6.07347C5.97852 6.96425 5.88697 6.99866 5.81573 7.06111L4.53255 8.18642V7.35175C4.53255 7.13808 4.35775 6.96425 4.14291 6.96425H1.2728C0.910219 6.96425 0.615234 6.6702 0.615234 6.30871V1.24658C0.615234 0.885099 0.910219 0.591044 1.2728 0.591044H1.95296C2.35967 0.578528 2.35938 -0.00807378 1.95296 -0.0204671H1.2728C0.570979 -0.0205078 0 0.547912 0 1.24658V6.30875C0 7.00738 0.570979 7.5758 1.2728 7.5758H3.91732V8.68317C3.91732 8.83523 4.00739 8.97384 4.14676 9.03633C4.28511 9.09859 4.44979 9.07462 4.56467 8.97376L6.15878 7.5758H9.10416C9.80597 7.5758 10.377 7.00738 10.377 6.30875V1.24658C10.377 0.547912 9.80597 -0.0205078 9.10416 -0.0205078Z" fill="#00D094"/>
<path d="M20.6924 12.6052C20.8623 12.6052 21 12.4683 21 12.2995V9.15576C21 8.45709 20.429 7.88867 19.7272 7.88867H11.8958C11.194 7.88867 10.623 8.45709 10.623 9.15576V14.2179C10.623 14.9166 11.194 15.485 11.8958 15.485H14.8412L16.4353 16.8829C16.5078 16.9465 16.6 16.9797 16.6934 16.9797C16.7475 16.9797 16.8021 16.9685 16.8532 16.9456C16.9926 16.8831 17.0827 16.7444 17.0827 16.5924V15.485H19.7272C20.429 15.485 21 14.9166 21 14.218V13.7421C20.9874 13.3378 20.3972 13.3381 20.3848 13.7421V14.218C20.3848 14.5794 20.0898 14.8735 19.7272 14.8735H16.8571C16.6423 14.8735 16.4674 15.0473 16.4674 15.261V16.0957L15.1843 14.9704C15.113 14.9079 15.0215 14.8736 14.9265 14.8736H11.8958C11.5333 14.8736 11.2383 14.5795 11.2383 14.218V9.15572C11.2383 8.79424 11.5333 8.50018 11.8958 8.50018H19.7272C20.0898 8.50018 20.3848 8.79428 20.3848 9.15572V12.2994C20.3848 12.4683 20.5225 12.6052 20.6924 12.6052Z" fill="#00D094"/>
<path d="M17.3696 10.4037L15.2988 12.3192L14.2905 10.9736C14.1891 10.8382 13.9963 10.8101 13.8601 10.911C13.7238 11.0119 13.6957 11.2035 13.7971 11.3389L15.0105 12.958C15.0627 13.0278 15.1422 13.072 15.2293 13.0799C15.3157 13.0878 15.4028 13.0585 15.4667 12.9992L17.7887 10.8513C17.9131 10.7363 17.9201 10.5428 17.8044 10.4192C17.6886 10.2956 17.494 10.2887 17.3696 10.4037Z" fill="#00D094"/>
<path d="M4.86957 5.13135H4.86916C4.46253 5.14394 4.4631 5.73055 4.86957 5.74286C5.27616 5.73038 5.27607 5.14378 4.86957 5.13135Z" fill="#00D094"/>
<path d="M6.02325 3.12558C5.99203 2.52744 5.49533 2.04948 4.89245 2.03737C4.30584 2.02494 3.80459 2.45084 3.72379 3.02631C3.67654 3.25139 3.75927 3.48364 4.02025 3.49204C4.23759 3.48865 4.34091 3.30956 4.33312 3.1109C4.37085 2.84196 4.60456 2.64318 4.88006 2.64876C5.162 2.65443 5.39427 2.87775 5.40887 3.15726C5.41667 3.30655 5.36413 3.44825 5.26097 3.55625C5.15769 3.66436 5.0184 3.72388 4.86878 3.72388C4.69889 3.72388 4.56116 3.86078 4.56116 4.02964V4.61212C4.57375 5.01637 5.16393 5.01608 5.1764 4.61212V4.29356C5.37713 4.2382 5.56186 4.12944 5.70714 3.97729C5.9276 3.74647 6.03986 3.44397 6.02325 3.12558Z" fill="#00D094"/>
<path d="M7.01341 11.0488H3.74377C3.33706 11.0613 3.33734 11.6479 3.74377 11.6603H7.01341C7.42012 11.6478 7.41983 11.0612 7.01341 11.0488Z" fill="#00D094"/>
<path d="M7.01341 12.3428H3.74377C3.33706 12.3553 3.33734 12.9419 3.74377 12.9543H7.01341C7.42012 12.9418 7.41983 12.3552 7.01341 12.3428Z" fill="#00D094"/>
<path d="M6.11533 13.6372H3.74377C3.33706 13.6497 3.33734 14.2363 3.74377 14.2487H6.11533C6.52204 14.2362 6.52176 13.6496 6.11533 13.6372Z" fill="#00D094"/>
<path d="M13.9866 3.32196H17.2562C17.6629 3.30944 17.6626 2.72284 17.2562 2.71045H13.9866C13.5799 2.72301 13.5801 3.30957 13.9866 3.32196Z" fill="#00D094"/>
<path d="M13.9866 4.61639H17.2562C17.6629 4.60388 17.6626 4.01728 17.2562 4.00488H13.9866C13.5799 4.0174 13.5801 4.60396 13.9866 4.61639Z" fill="#00D094"/>
<path d="M13.9866 5.91034H16.3581C16.7648 5.89782 16.7646 5.31122 16.3581 5.29883H13.9866C13.5799 5.31134 13.5801 5.89795 13.9866 5.91034Z" fill="#00D094"/>
</g>
<defs>
<clipPath id="clip0_1_633">
<rect width="21" height="17" fill="white"/>
</clipPath>
</defs>
</svg>
