<svg width="15" height="15" viewBox="0 0 15 15" fill="none" xmlns="http://www.w3.org/2000/svg">
<g clip-path="url(#clip0_1_27362)">
<path d="M4.14166 3.41361C3.92533 3.19711 3.57435 3.19711 3.35802 3.41361C2.55482 4.21682 2.16004 5.33572 2.27477 6.48363C2.30339 6.7696 2.5443 6.98276 2.82564 6.98276C2.84413 6.98276 2.86276 6.98183 2.88125 6.97998C3.18587 6.94951 3.40809 6.67775 3.37762 6.37333C3.29597 5.55756 3.57456 4.76435 4.14166 4.19722C4.35816 3.98092 4.35816 3.62991 4.14166 3.41361Z" fill="#00D094"/>
<path d="M6.33621 0C2.84241 0 0 2.84241 0 6.33621C0 9.83001 2.84241 12.6724 6.33621 12.6724C9.83001 12.6724 12.6724 9.83001 12.6724 6.33621C12.6724 2.84241 9.82998 0 6.33621 0ZM6.33621 11.564C3.45352 11.564 1.10839 9.21891 1.10839 6.33621C1.10839 3.45352 3.45352 1.10839 6.33621 1.10839C9.21873 1.10839 11.564 3.45352 11.564 6.33621C11.564 9.21891 9.21891 11.564 6.33621 11.564Z" fill="#00D094"/>
<path d="M14.8376 14.054L10.8105 10.0269C10.594 9.81041 10.2434 9.81041 10.0269 10.0269C9.81038 10.2432 9.81038 10.5942 10.0269 10.8105L14.054 14.8376C14.1623 14.9459 14.3039 15 14.4458 15C14.5877 15 14.7294 14.9459 14.8376 14.8376C15.0541 14.6213 15.0541 14.2703 14.8376 14.054Z" fill="#00D094"/>
</g>
<defs>
<clipPath id="clip0_1_27362">
<rect width="15" height="15" fill="white"/>
</clipPath>
</defs>
</svg>
