<svg width="14" height="14" viewBox="0 0 14 14" fill="none" xmlns="http://www.w3.org/2000/svg">
<path fill-rule="evenodd" clip-rule="evenodd" d="M6.47253 0.989888C6.56526 0.781645 6.77192 0.647461 7.0001 0.647461C7.22827 0.647461 7.43493 0.781645 7.52766 0.989888L9.08219 4.47523C9.1284 4.57841 9.22555 4.64898 9.3379 4.66101L13.1331 5.06229C13.36 5.08635 13.5515 5.24142 13.6217 5.45852C13.6923 5.67531 13.6287 5.9133 13.4594 6.06584L10.6247 8.62138C10.5408 8.69702 10.5038 8.81158 10.5272 8.92203L11.3181 12.6555C11.3652 12.8786 11.277 13.1087 11.0924 13.2426C10.9079 13.3767 10.662 13.3897 10.4646 13.2758L7.15802 11.37C7.06023 11.3133 6.93997 11.3133 6.84218 11.37L3.53564 13.2758C3.33816 13.3897 3.09225 13.3767 2.90775 13.2426C2.72324 13.1087 2.63495 12.8786 2.6821 12.6555L3.47297 8.92203C3.4964 8.81158 3.45937 8.69702 3.3755 8.62138L0.540828 6.06584C0.371513 5.9133 0.307905 5.67531 0.378476 5.45852C0.448734 5.24142 0.640205 5.08635 0.867117 5.0623L4.66229 4.66101C4.77464 4.64898 4.8718 4.57841 4.918 4.47523L6.47253 0.989888Z" fill="#FFC400"/>
</svg>
