<svg width="10" height="10" viewBox="0 0 10 10" fill="none" xmlns="http://www.w3.org/2000/svg">
<path d="M1.60001 9.80005L5.00015 7.2501L8.40028 9.80005C8.8413 10.131 9.46932 10.042 9.80034 9.60006C10.1313 9.15807 10.0413 8.53108 9.60033 8.20008L5.60017 5.20015C5.24416 4.93315 4.75514 4.93315 4.40012 5.20015L0.399966 8.20008C-0.0420511 8.53108 -0.131055 9.15807 0.199958 9.60006C0.530971 10.042 1.158 10.131 1.60001 9.80005Z" fill="#D1141E" fill-opacity="0.74"/>
<path d="M1.60001 4.80015L5.00015 2.25021L8.40028 4.80015C8.8413 5.13115 9.46932 5.04215 9.80034 4.60016C10.1313 4.15817 10.0413 3.53118 9.60033 3.20019L5.60017 0.200246C5.24416 -0.0667486 4.75514 -0.0667486 4.40012 0.200246L0.399966 3.20019C-0.0420511 3.53118 -0.131055 4.15817 0.199958 4.60016C0.530971 5.04215 1.158 5.13115 1.60001 4.80015Z" fill="#D1141E" fill-opacity="0.74"/>
</svg>
