<svg width="19" height="19" viewBox="0 0 19 19" fill="none" xmlns="http://www.w3.org/2000/svg">
<g clip-path="url(#clip0_1_27093)">
<path d="M15.9931 2.69113C14.2856 0.983659 12.016 0.043457 9.60113 0.043457C9.60099 0.043457 9.60042 0.043457 9.60028 0.043457C8.40593 0.0435992 7.24202 0.274845 6.14111 0.730938C5.04006 1.18703 4.05364 1.84649 3.20901 2.69113C1.50168 4.39845 0.561478 6.66853 0.561478 9.08311C0.561478 10.5231 0.908916 11.9541 1.56724 13.229L0.0477873 17.5698C-0.0593027 17.876 0.0164994 18.2088 0.246039 18.4382C0.406603 18.5989 0.617939 18.6842 0.835247 18.6842C0.9284 18.6842 1.02255 18.6686 1.11442 18.6364L5.45519 17.1171C6.73018 17.7755 8.16117 18.1229 9.60113 18.1229C12.0157 18.1229 14.2856 17.1826 15.9931 15.4752C17.7004 13.7679 18.6408 11.4978 18.6408 9.08325C18.6408 6.66853 17.7006 4.39845 15.9931 2.69113ZM15.22 14.7021C13.7192 16.2031 11.7236 17.0295 9.60113 17.0295C8.30268 17.0295 7.01276 16.7084 5.87075 16.1006C5.66369 15.9905 5.41893 15.9716 5.1992 16.0485L1.2555 17.4287L2.63587 13.485C2.71281 13.265 2.69375 13.0203 2.58367 12.8133C1.97598 11.6716 1.65471 10.3817 1.65471 9.08311C1.65471 6.96065 2.48128 4.96505 3.9821 3.46422C5.48278 1.96354 7.4781 1.13697 9.60042 1.13669H9.60113C11.7237 1.13669 13.7192 1.96326 15.22 3.46422C16.721 4.96505 17.5476 6.96051 17.5476 9.08311C17.5476 11.2057 16.721 13.2013 15.22 14.7021Z" fill="#4E4E4E"/>
<path d="M12.9609 9.89053C12.545 9.47469 11.8684 9.47469 11.4525 9.89053L10.9977 10.3453C9.86835 9.72997 8.95446 8.81608 8.33894 7.68673L8.79375 7.23191C9.20974 6.81607 9.20974 6.1394 8.79375 5.72355L7.56812 4.49792C7.15227 4.08207 6.4756 4.08207 6.05975 4.49792L5.07931 5.47837C4.51769 6.03999 4.48967 7.0055 5.00037 8.19715C5.44381 9.23178 6.2553 10.369 7.28539 11.399C8.31547 12.4291 9.45265 13.2406 10.4873 13.6841C11.0534 13.9267 11.5684 14.0477 12.0134 14.0477C12.5051 14.0477 12.9112 13.8999 13.2061 13.6051L14.1865 12.6245V12.6247C14.388 12.4232 14.499 12.1554 14.499 11.8705C14.499 11.5855 14.388 11.3177 14.1865 11.1163L12.9609 9.89053ZM12.433 12.832C12.2727 12.9923 11.7798 13.0485 10.9181 12.6793C10.0081 12.2893 8.99257 11.56 8.05848 10.6259C7.1244 9.69186 6.39525 8.67642 6.00529 7.76651C5.63595 6.90481 5.69212 6.41174 5.8524 6.25146L6.81408 5.28979L8.00188 6.47773L7.43258 7.04717C7.17517 7.30459 7.11302 7.69498 7.27814 8.01866C8.02663 9.48635 9.19808 10.6578 10.6658 11.4063C10.9896 11.5714 11.38 11.5094 11.6374 11.2518L12.2067 10.6825L13.3946 11.8705L12.433 12.832Z" fill="#4E4E4E"/>
</g>
<defs>
<clipPath id="clip0_1_27093">
<rect width="18.6408" height="18.6408" fill="white" transform="translate(0 0.043457)"/>
</clipPath>
</defs>
</svg>
